<svg xmlns="http://www.w3.org/2000/svg" version="1.1" xmlns:xlink="http://www.w3.org/1999/xlink" xmlns:svgjs="http://svgjs.dev/svgjs" width="1440" height="560" preserveAspectRatio="none" viewBox="0 0 1440 560"><g mask="url(&quot;#SvgjsMask1000&quot;)" fill="none"><rect width="1440" height="560" x="0" y="0" fill="#0e2a47"></rect><path d="M-103.91 411.65L-103.91 411.65" stroke="#132e65" stroke-width="1.5"></path><path d="M-103.91 411.65L-51.06 560.06" stroke="#132e65" stroke-width="1.5"></path><path d="M-103.91 411.65L51.26 359.87" stroke="#132e65" stroke-width="1.5"></path><path d="M-103.91 411.65L55.6 496.01" stroke="#132e65" stroke-width="1.5"></path><path d="M-103.91 411.65L-103.26 710.73" stroke="#132e65" stroke-width="1.5"></path><path d="M-103.91 411.65L38.87 675.5" stroke="#132e65" stroke-width="1.5"></path><path d="M-103.91 411.65L207.84 398.33" stroke="#132e65" stroke-width="1.5"></path><path d="M-51.06 560.06L-51.06 560.06" stroke="#132e65" stroke-width="1.5"></path><path d="M-51.06 560.06L55.6 496.01" stroke="#132e65" stroke-width="1.5"></path><path d="M-51.06 560.06L38.87 675.5" stroke="#132e65" stroke-width="1.5"></path><path d="M-51.06 560.06L-103.26 710.73" stroke="#132e65" stroke-width="1.5"></path><path d="M-51.06 560.06L51.26 359.87" stroke="#132e65" stroke-width="1.5"></path><path d="M-103.26 710.73L-103.26 710.73" stroke="#132e65" stroke-width="1.5"></path><path d="M-103.26 710.73L38.87 675.5" stroke="#132e65" stroke-width="1.5"></path><path d="M-103.26 710.73L55.6 496.01" stroke="#132e65" stroke-width="1.5"></path><path d="M-103.26 710.73L214.36 650.47" stroke="#132e65" stroke-width="1.5"></path><path d="M51.26 359.87L51.26 359.87" stroke="#132e65" stroke-width="1.5"></path><path d="M51.26 359.87L55.6 496.01" stroke="#132e65" stroke-width="1.5"></path><path d="M51.26 359.87L207.84 398.33" stroke="#132e65" stroke-width="1.5"></path><path d="M55.6 496.01L55.6 496.01" stroke="#132e65" stroke-width="1.5"></path><path d="M55.6 496.01L221.71 489.96" stroke="#132e65" stroke-width="1.5"></path><path d="M55.6 496.01L38.87 675.5" stroke="#132e65" stroke-width="1.5"></path><path d="M55.6 496.01L207.84 398.33" stroke="#132e65" stroke-width="1.5"></path><path d="M38.87 675.5L38.87 675.5" stroke="#132e65" stroke-width="1.5"></path><path d="M38.87 675.5L214.36 650.47" stroke="#132e65" stroke-width="1.5"></path><path d="M207.84 398.33L207.84 398.33" stroke="#132e65" stroke-width="1.5"></path><path d="M207.84 398.33L221.71 489.96" stroke="#132e65" stroke-width="1.5"></path><path d="M207.84 398.33L343.56 392.6" stroke="#132e65" stroke-width="1.5"></path><path d="M207.84 398.33L339.63 497.75" stroke="#132e65" stroke-width="1.5"></path><path d="M221.71 489.96L221.71 489.96" stroke="#132e65" stroke-width="1.5"></path><path d="M221.71 489.96L339.63 497.75" stroke="#132e65" stroke-width="1.5"></path><path d="M221.71 489.96L343.56 392.6" stroke="#132e65" stroke-width="1.5"></path><path d="M214.36 650.47L214.36 650.47" stroke="#132e65" stroke-width="1.5"></path><path d="M214.36 650.47L221.71 489.96" stroke="#132e65" stroke-width="1.5"></path><path d="M343.56 392.6L343.56 392.6" stroke="#132e65" stroke-width="1.5"></path><path d="M343.56 392.6L339.63 497.75" stroke="#132e65" stroke-width="1.5"></path><path d="M339.63 497.75L339.63 497.75" stroke="#132e65" stroke-width="1.5"></path><path d="M339.63 497.75L495.58 557.39" stroke="#132e65" stroke-width="1.5"></path><path d="M339.63 497.75L214.36 650.47" stroke="#132e65" stroke-width="1.5"></path><path d="M339.63 497.75L550.07 372.78" stroke="#132e65" stroke-width="1.5"></path><path d="M550.07 372.78L550.07 372.78" stroke="#132e65" stroke-width="1.5"></path><path d="M550.07 372.78L673.81 353.27" stroke="#132e65" stroke-width="1.5"></path><path d="M550.07 372.78L673.82 492.85" stroke="#132e65" stroke-width="1.5"></path><path d="M550.07 372.78L495.58 557.39" stroke="#132e65" stroke-width="1.5"></path><path d="M495.58 557.39L495.58 557.39" stroke="#132e65" stroke-width="1.5"></path><path d="M495.58 557.39L510.6 691.35" stroke="#132e65" stroke-width="1.5"></path><path d="M495.58 557.39L673.82 492.85" stroke="#132e65" stroke-width="1.5"></path><path d="M510.6 691.35L510.6 691.35" stroke="#132e65" stroke-width="1.5"></path><path d="M510.6 691.35L671.59 644.91" stroke="#132e65" stroke-width="1.5"></path><path d="M510.6 691.35L673.82 492.85" stroke="#132e65" stroke-width="1.5"></path><path d="M671.15 216.5L671.15 216.5" stroke="#132e65" stroke-width="1.5"></path><path d="M671.15 216.5L673.81 353.27" stroke="#132e65" stroke-width="1.5"></path><path d="M671.15 216.5L818.54 216.71" stroke="#132e65" stroke-width="1.5"></path><path d="M671.15 216.5L550.07 372.78" stroke="#132e65" stroke-width="1.5"></path><path d="M671.15 216.5L834.04 356.8" stroke="#132e65" stroke-width="1.5"></path><path d="M671.15 216.5L673.82 492.85" stroke="#132e65" stroke-width="1.5"></path><path d="M673.81 353.27L673.81 353.27" stroke="#132e65" stroke-width="1.5"></path><path d="M673.81 353.27L673.82 492.85" stroke="#132e65" stroke-width="1.5"></path><path d="M673.81 353.27L834.04 356.8" stroke="#132e65" stroke-width="1.5"></path><path d="M673.82 492.85L673.82 492.85" stroke="#132e65" stroke-width="1.5"></path><path d="M673.82 492.85L813.99 523.11" stroke="#132e65" stroke-width="1.5"></path><path d="M673.82 492.85L671.59 644.91" stroke="#132e65" stroke-width="1.5"></path><path d="M671.59 644.91L671.59 644.91" stroke="#132e65" stroke-width="1.5"></path><path d="M671.59 644.91L842.27 655.36" stroke="#132e65" stroke-width="1.5"></path><path d="M671.59 644.91L813.99 523.11" stroke="#132e65" stroke-width="1.5"></path><path d="M671.59 644.91L495.58 557.39" stroke="#132e65" stroke-width="1.5"></path><path d="M818.54 216.71L818.54 216.71" stroke="#132e65" stroke-width="1.5"></path><path d="M818.54 216.71L834.04 356.8" stroke="#132e65" stroke-width="1.5"></path><path d="M818.54 216.71L979.67 236.87" stroke="#132e65" stroke-width="1.5"></path><path d="M818.54 216.71L948.37 79.4" stroke="#132e65" stroke-width="1.5"></path><path d="M834.04 356.8L834.04 356.8" stroke="#132e65" stroke-width="1.5"></path><path d="M813.99 523.11L813.99 523.11" stroke="#132e65" stroke-width="1.5"></path><path d="M813.99 523.11L842.27 655.36" stroke="#132e65" stroke-width="1.5"></path><path d="M842.27 655.36L842.27 655.36" stroke="#132e65" stroke-width="1.5"></path><path d="M842.27 655.36L946.94 708.91" stroke="#132e65" stroke-width="1.5"></path><path d="M948.37 79.4L948.37 79.4" stroke="#132e65" stroke-width="1.5"></path><path d="M948.37 79.4L979.67 236.87" stroke="#132e65" stroke-width="1.5"></path><path d="M948.37 79.4L1104.4 -100.4" stroke="#132e65" stroke-width="1.5"></path><path d="M979.67 236.87L979.67 236.87" stroke="#132e65" stroke-width="1.5"></path><path d="M979.67 236.87L1100.58 356.94" stroke="#132e65" stroke-width="1.5"></path><path d="M979.67 236.87L834.04 356.8" stroke="#132e65" stroke-width="1.5"></path><path d="M979.67 236.87L1011.55 506.34" stroke="#132e65" stroke-width="1.5"></path><path d="M979.67 236.87L1249.34 196.98" stroke="#132e65" stroke-width="1.5"></path><path d="M1011.55 506.34L1011.55 506.34" stroke="#132e65" stroke-width="1.5"></path><path d="M1011.55 506.34L1143.03 514.58" stroke="#132e65" stroke-width="1.5"></path><path d="M1011.55 506.34L1100.58 356.94" stroke="#132e65" stroke-width="1.5"></path><path d="M1011.55 506.34L813.99 523.11" stroke="#132e65" stroke-width="1.5"></path><path d="M1011.55 506.34L1115.52 678.03" stroke="#132e65" stroke-width="1.5"></path><path d="M1011.55 506.34L946.94 708.91" stroke="#132e65" stroke-width="1.5"></path><path d="M946.94 708.91L946.94 708.91" stroke="#132e65" stroke-width="1.5"></path><path d="M946.94 708.91L1115.52 678.03" stroke="#132e65" stroke-width="1.5"></path><path d="M946.94 708.91L813.99 523.11" stroke="#132e65" stroke-width="1.5"></path><path d="M1104.4 -100.4L1104.4 -100.4" stroke="#132e65" stroke-width="1.5"></path><path d="M1104.4 -100.4L1277.7 -110.15" stroke="#132e65" stroke-width="1.5"></path><path d="M1104.4 -100.4L1239.69 82.18" stroke="#132e65" stroke-width="1.5"></path><path d="M1104.4 -100.4L1405.49 -65.32" stroke="#132e65" stroke-width="1.5"></path><path d="M1104.4 -100.4L1249.34 196.98" stroke="#132e65" stroke-width="1.5"></path><path d="M1100.58 356.94L1100.58 356.94" stroke="#132e65" stroke-width="1.5"></path><path d="M1100.58 356.94L1143.03 514.58" stroke="#132e65" stroke-width="1.5"></path><path d="M1100.58 356.94L1248.98 502.44" stroke="#132e65" stroke-width="1.5"></path><path d="M1100.58 356.94L1303.36 409.02" stroke="#132e65" stroke-width="1.5"></path><path d="M1143.03 514.58L1143.03 514.58" stroke="#132e65" stroke-width="1.5"></path><path d="M1143.03 514.58L1248.98 502.44" stroke="#132e65" stroke-width="1.5"></path><path d="M1143.03 514.58L1115.52 678.03" stroke="#132e65" stroke-width="1.5"></path><path d="M1115.52 678.03L1115.52 678.03" stroke="#132e65" stroke-width="1.5"></path><path d="M1115.52 678.03L1247.32 700.71" stroke="#132e65" stroke-width="1.5"></path><path d="M1277.7 -110.15L1277.7 -110.15" stroke="#132e65" stroke-width="1.5"></path><path d="M1277.7 -110.15L1405.49 -65.32" stroke="#132e65" stroke-width="1.5"></path><path d="M1239.69 82.18L1239.69 82.18" stroke="#132e65" stroke-width="1.5"></path><path d="M1239.69 82.18L1249.34 196.98" stroke="#132e65" stroke-width="1.5"></path><path d="M1239.69 82.18L1409.03 77.68" stroke="#132e65" stroke-width="1.5"></path><path d="M1239.69 82.18L1277.7 -110.15" stroke="#132e65" stroke-width="1.5"></path><path d="M1239.69 82.18L1405.49 -65.32" stroke="#132e65" stroke-width="1.5"></path><path d="M1249.34 196.98L1249.34 196.98" stroke="#132e65" stroke-width="1.5"></path><path d="M1249.34 196.98L1420.04 222.53" stroke="#132e65" stroke-width="1.5"></path><path d="M1249.34 196.98L1409.03 77.68" stroke="#132e65" stroke-width="1.5"></path><path d="M1249.34 196.98L1100.58 356.94" stroke="#132e65" stroke-width="1.5"></path><path d="M1249.34 196.98L1303.36 409.02" stroke="#132e65" stroke-width="1.5"></path><path d="M1249.34 196.98L1395.76 394" stroke="#132e65" stroke-width="1.5"></path><path d="M1303.36 409.02L1303.36 409.02" stroke="#132e65" stroke-width="1.5"></path><path d="M1303.36 409.02L1395.76 394" stroke="#132e65" stroke-width="1.5"></path><path d="M1303.36 409.02L1248.98 502.44" stroke="#132e65" stroke-width="1.5"></path><path d="M1303.36 409.02L1143.03 514.58" stroke="#132e65" stroke-width="1.5"></path><path d="M1303.36 409.02L1454.74 546.29" stroke="#132e65" stroke-width="1.5"></path><path d="M1248.98 502.44L1248.98 502.44" stroke="#132e65" stroke-width="1.5"></path><path d="M1248.98 502.44L1395.76 394" stroke="#132e65" stroke-width="1.5"></path><path d="M1247.32 700.71L1247.32 700.71" stroke="#132e65" stroke-width="1.5"></path><path d="M1247.32 700.71L1248.98 502.44" stroke="#132e65" stroke-width="1.5"></path><path d="M1247.32 700.71L1458.45 673.09" stroke="#132e65" stroke-width="1.5"></path><path d="M1247.32 700.71L1143.03 514.58" stroke="#132e65" stroke-width="1.5"></path><path d="M1247.32 700.71L1454.74 546.29" stroke="#132e65" stroke-width="1.5"></path><path d="M1405.49 -65.32L1405.49 -65.32" stroke="#132e65" stroke-width="1.5"></path><path d="M1405.49 -65.32L1539.45 -110.14" stroke="#132e65" stroke-width="1.5"></path><path d="M1409.03 77.68L1409.03 77.68" stroke="#132e65" stroke-width="1.5"></path><path d="M1409.03 77.68L1405.49 -65.32" stroke="#132e65" stroke-width="1.5"></path><path d="M1409.03 77.68L1420.04 222.53" stroke="#132e65" stroke-width="1.5"></path><path d="M1420.04 222.53L1420.04 222.53" stroke="#132e65" stroke-width="1.5"></path><path d="M1420.04 222.53L1545.14 225.74" stroke="#132e65" stroke-width="1.5"></path><path d="M1395.76 394L1395.76 394" stroke="#132e65" stroke-width="1.5"></path><path d="M1395.76 394L1454.74 546.29" stroke="#132e65" stroke-width="1.5"></path><path d="M1395.76 394L1420.04 222.53" stroke="#132e65" stroke-width="1.5"></path><path d="M1395.76 394L1562.34 343.84" stroke="#132e65" stroke-width="1.5"></path><path d="M1395.76 394L1545.14 225.74" stroke="#132e65" stroke-width="1.5"></path><path d="M1454.74 546.29L1454.74 546.29" stroke="#132e65" stroke-width="1.5"></path><path d="M1454.74 546.29L1458.45 673.09" stroke="#132e65" stroke-width="1.5"></path><path d="M1454.74 546.29L1602.69 546.67" stroke="#132e65" stroke-width="1.5"></path><path d="M1454.74 546.29L1568.27 660.28" stroke="#132e65" stroke-width="1.5"></path><path d="M1458.45 673.09L1458.45 673.09" stroke="#132e65" stroke-width="1.5"></path><path d="M1458.45 673.09L1568.27 660.28" stroke="#132e65" stroke-width="1.5"></path><path d="M1458.45 673.09L1602.69 546.67" stroke="#132e65" stroke-width="1.5"></path><path d="M1539.45 -110.14L1539.45 -110.14" stroke="#132e65" stroke-width="1.5"></path><path d="M1539.45 -110.14L1576.07 107.21" stroke="#132e65" stroke-width="1.5"></path><path d="M1539.45 -110.14L1409.03 77.68" stroke="#132e65" stroke-width="1.5"></path><path d="M1539.45 -110.14L1277.7 -110.15" stroke="#132e65" stroke-width="1.5"></path><path d="M1539.45 -110.14L1545.14 225.74" stroke="#132e65" stroke-width="1.5"></path><path d="M1576.07 107.21L1576.07 107.21" stroke="#132e65" stroke-width="1.5"></path><path d="M1576.07 107.21L1545.14 225.74" stroke="#132e65" stroke-width="1.5"></path><path d="M1576.07 107.21L1409.03 77.68" stroke="#132e65" stroke-width="1.5"></path><path d="M1576.07 107.21L1420.04 222.53" stroke="#132e65" stroke-width="1.5"></path><path d="M1545.14 225.74L1545.14 225.74" stroke="#132e65" stroke-width="1.5"></path><path d="M1545.14 225.74L1562.34 343.84" stroke="#132e65" stroke-width="1.5"></path><path d="M1545.14 225.74L1409.03 77.68" stroke="#132e65" stroke-width="1.5"></path><path d="M1562.34 343.84L1562.34 343.84" stroke="#132e65" stroke-width="1.5"></path><path d="M1562.34 343.84L1420.04 222.53" stroke="#132e65" stroke-width="1.5"></path><path d="M1562.34 343.84L1602.69 546.67" stroke="#132e65" stroke-width="1.5"></path><path d="M1602.69 546.67L1602.69 546.67" stroke="#132e65" stroke-width="1.5"></path><path d="M1602.69 546.67L1568.27 660.28" stroke="#132e65" stroke-width="1.5"></path><path d="M1568.27 660.28L1568.27 660.28" stroke="#132e65" stroke-width="1.5"></path><circle r="5" cx="-103.91" cy="411.65" fill="#132e65"></circle><circle r="5" cx="-51.06" cy="560.06" fill="#132e65"></circle><circle r="5" cx="-103.26" cy="710.73" fill="#132e65"></circle><circle r="5" cx="51.26" cy="359.87" fill="#132e65"></circle><circle r="5" cx="55.6" cy="496.01" fill="#132e65"></circle><circle r="5" cx="38.87" cy="675.5" fill="#132e65"></circle><circle r="5" cx="207.84" cy="398.33" fill="#132e65"></circle><circle r="5" cx="221.71" cy="489.96" fill="#132e65"></circle><circle r="5" cx="214.36" cy="650.47" fill="#132e65"></circle><circle r="5" cx="343.56" cy="392.6" fill="#132e65"></circle><circle r="5" cx="339.63" cy="497.75" fill="#132e65"></circle><circle r="5" cx="550.07" cy="372.78" fill="#132e65"></circle><circle r="5" cx="495.58" cy="557.39" fill="#132e65"></circle><circle r="5" cx="510.6" cy="691.35" fill="#132e65"></circle><circle r="5" cx="671.15" cy="216.5" fill="#132e65"></circle><circle r="5" cx="673.81" cy="353.27" fill="#132e65"></circle><circle r="5" cx="673.82" cy="492.85" fill="#132e65"></circle><circle r="5" cx="671.59" cy="644.91" fill="#132e65"></circle><circle r="5" cx="818.54" cy="216.71" fill="#132e65"></circle><circle r="5" cx="834.04" cy="356.8" fill="#132e65"></circle><circle r="5" cx="813.99" cy="523.11" fill="#132e65"></circle><circle r="5" cx="842.27" cy="655.36" fill="#132e65"></circle><circle r="5" cx="948.37" cy="79.4" fill="#132e65"></circle><circle r="5" cx="979.67" cy="236.87" fill="#132e65"></circle><circle r="5" cx="1011.55" cy="506.34" fill="#132e65"></circle><circle r="5" cx="946.94" cy="708.91" fill="#132e65"></circle><circle r="5" cx="1104.4" cy="-100.4" fill="#132e65"></circle><circle r="5" cx="1100.58" cy="356.94" fill="#132e65"></circle><circle r="5" cx="1143.03" cy="514.58" fill="#132e65"></circle><circle r="5" cx="1115.52" cy="678.03" fill="#132e65"></circle><circle r="5" cx="1277.7" cy="-110.15" fill="#132e65"></circle><circle r="5" cx="1239.69" cy="82.18" fill="#132e65"></circle><circle r="5" cx="1249.34" cy="196.98" fill="#132e65"></circle><circle r="5" cx="1303.36" cy="409.02" fill="#132e65"></circle><circle r="5" cx="1248.98" cy="502.44" fill="#132e65"></circle><circle r="5" cx="1247.32" cy="700.71" fill="#132e65"></circle><circle r="5" cx="1405.49" cy="-65.32" fill="#132e65"></circle><circle r="5" cx="1409.03" cy="77.68" fill="#132e65"></circle><circle r="5" cx="1420.04" cy="222.53" fill="#132e65"></circle><circle r="5" cx="1395.76" cy="394" fill="#132e65"></circle><circle r="5" cx="1454.74" cy="546.29" fill="#132e65"></circle><circle r="5" cx="1458.45" cy="673.09" fill="#132e65"></circle><circle r="5" cx="1539.45" cy="-110.14" fill="#132e65"></circle><circle r="5" cx="1576.07" cy="107.21" fill="#132e65"></circle><circle r="5" cx="1545.14" cy="225.74" fill="#132e65"></circle><circle r="5" cx="1562.34" cy="343.84" fill="#132e65"></circle><circle r="5" cx="1602.69" cy="546.67" fill="#132e65"></circle><circle r="5" cx="1568.27" cy="660.28" fill="#132e65"></circle><path d="M-92.13 518.62L-92.13 518.62" stroke="hsl(228.5, 77.2%, 51.5%)" stroke-width="1.5"></path><path d="M-92.13 518.62L-45.55 688.85" stroke="hsl(228.5, 77.2%, 51.5%)" stroke-width="1.5"></path><path d="M-92.13 518.62L53.15 684.99" stroke="hsl(228.5, 77.2%, 51.5%)" stroke-width="1.5"></path><path d="M1245.84 -60.8L1245.84 -60.8" stroke="hsl(228.5, 77.2%, 51.5%)" stroke-width="1.5"></path><path d="M1245.84 -60.8L1249.42 39.71" stroke="hsl(228.5, 77.2%, 51.5%)" stroke-width="1.5"></path><path d="M1245.84 -60.8L1457.94 -97.17" stroke="hsl(228.5, 77.2%, 51.5%)" stroke-width="1.5"></path><path d="M1245.84 -60.8L1437.2 38.72" stroke="hsl(228.5, 77.2%, 51.5%)" stroke-width="1.5"></path><path d="M1245.84 -60.8L1089.85 212.01" stroke="hsl(228.5, 77.2%, 51.5%)" stroke-width="1.5"></path><path d="M1245.84 -60.8L1301.32 261.34" stroke="hsl(228.5, 77.2%, 51.5%)" stroke-width="1.5"></path><path d="M1302.21 491.72L1302.21 491.72" stroke="hsl(228.5, 77.2%, 51.5%)" stroke-width="1.5"></path><path d="M1302.21 491.72L1395.29 397.45" stroke="hsl(228.5, 77.2%, 51.5%)" stroke-width="1.5"></path><path d="M1302.21 491.72L1271.03 357.86" stroke="hsl(228.5, 77.2%, 51.5%)" stroke-width="1.5"></path><path d="M1302.21 491.72L1456.61 503.26" stroke="hsl(228.5, 77.2%, 51.5%)" stroke-width="1.5"></path><path d="M1302.21 491.72L1156.73 551.32" stroke="hsl(228.5, 77.2%, 51.5%)" stroke-width="1.5"></path><path d="M1395.29 397.45L1395.29 397.45" stroke="hsl(228.5, 77.2%, 51.5%)" stroke-width="1.5"></path><path d="M1395.29 397.45L1456.61 503.26" stroke="hsl(228.5, 77.2%, 51.5%)" stroke-width="1.5"></path><path d="M1395.29 397.45L1271.03 357.86" stroke="hsl(228.5, 77.2%, 51.5%)" stroke-width="1.5"></path><path d="M1456.61 503.26L1456.61 503.26" stroke="hsl(228.5, 77.2%, 51.5%)" stroke-width="1.5"></path><path d="M1456.61 503.26L1542.45 498.69" stroke="hsl(228.5, 77.2%, 51.5%)" stroke-width="1.5"></path><path d="M1456.61 503.26L1451.3 659.01" stroke="hsl(228.5, 77.2%, 51.5%)" stroke-width="1.5"></path><path d="M1573.73 692.91L1573.73 692.91" stroke="hsl(228.5, 77.2%, 51.5%)" stroke-width="1.5"></path><path d="M1573.73 692.91L1451.3 659.01" stroke="hsl(228.5, 77.2%, 51.5%)" stroke-width="1.5"></path><path d="M1573.73 692.91L1542.45 498.69" stroke="hsl(228.5, 77.2%, 51.5%)" stroke-width="1.5"></path><path d="M1573.73 692.91L1456.61 503.26" stroke="hsl(228.5, 77.2%, 51.5%)" stroke-width="1.5"></path><path d="M1573.73 692.91L1294.97 709.47" stroke="hsl(228.5, 77.2%, 51.5%)" stroke-width="1.5"></path><path d="M1573.73 692.91L1610.62 401.63" stroke="hsl(228.5, 77.2%, 51.5%)" stroke-width="1.5"></path><path d="M-45.55 688.85L-45.55 688.85" stroke="hsl(228.5, 77.2%, 51.5%)" stroke-width="1.5"></path><path d="M-45.55 688.85L53.15 684.99" stroke="hsl(228.5, 77.2%, 51.5%)" stroke-width="1.5"></path><path d="M53.15 684.99L53.15 684.99" stroke="hsl(228.5, 77.2%, 51.5%)" stroke-width="1.5"></path><path d="M53.15 684.99L205.53 676.73" stroke="hsl(228.5, 77.2%, 51.5%)" stroke-width="1.5"></path><path d="M53.15 684.99L203.81 542.71" stroke="hsl(228.5, 77.2%, 51.5%)" stroke-width="1.5"></path><path d="M53.15 684.99L399.51 708.3" stroke="hsl(228.5, 77.2%, 51.5%)" stroke-width="1.5"></path><path d="M53.15 684.99L391.33 510.1" stroke="hsl(228.5, 77.2%, 51.5%)" stroke-width="1.5"></path><path d="M203.81 542.71L203.81 542.71" stroke="hsl(228.5, 77.2%, 51.5%)" stroke-width="1.5"></path><path d="M203.81 542.71L205.53 676.73" stroke="hsl(228.5, 77.2%, 51.5%)" stroke-width="1.5"></path><path d="M203.81 542.71L391.33 510.1" stroke="hsl(228.5, 77.2%, 51.5%)" stroke-width="1.5"></path><path d="M205.53 676.73L205.53 676.73" stroke="hsl(228.5, 77.2%, 51.5%)" stroke-width="1.5"></path><path d="M391.33 510.1L391.33 510.1" stroke="hsl(228.5, 77.2%, 51.5%)" stroke-width="1.5"></path><path d="M391.33 510.1L487.85 487.8" stroke="hsl(228.5, 77.2%, 51.5%)" stroke-width="1.5"></path><path d="M391.33 510.1L526.13 653.61" stroke="hsl(228.5, 77.2%, 51.5%)" stroke-width="1.5"></path><path d="M391.33 510.1L399.51 708.3" stroke="hsl(228.5, 77.2%, 51.5%)" stroke-width="1.5"></path><path d="M391.33 510.1L205.53 676.73" stroke="hsl(228.5, 77.2%, 51.5%)" stroke-width="1.5"></path><path d="M391.33 510.1L656.05 561.98" stroke="hsl(228.5, 77.2%, 51.5%)" stroke-width="1.5"></path><path d="M399.51 708.3L399.51 708.3" stroke="hsl(228.5, 77.2%, 51.5%)" stroke-width="1.5"></path><path d="M399.51 708.3L526.13 653.61" stroke="hsl(228.5, 77.2%, 51.5%)" stroke-width="1.5"></path><path d="M399.51 708.3L205.53 676.73" stroke="hsl(228.5, 77.2%, 51.5%)" stroke-width="1.5"></path><path d="M399.51 708.3L487.85 487.8" stroke="hsl(228.5, 77.2%, 51.5%)" stroke-width="1.5"></path><path d="M399.51 708.3L203.81 542.71" stroke="hsl(228.5, 77.2%, 51.5%)" stroke-width="1.5"></path><path d="M399.51 708.3L670.43 640.22" stroke="hsl(228.5, 77.2%, 51.5%)" stroke-width="1.5"></path><path d="M487.85 487.8L487.85 487.8" stroke="hsl(228.5, 77.2%, 51.5%)" stroke-width="1.5"></path><path d="M487.85 487.8L526.13 653.61" stroke="hsl(228.5, 77.2%, 51.5%)" stroke-width="1.5"></path><path d="M526.13 653.61L526.13 653.61" stroke="hsl(228.5, 77.2%, 51.5%)" stroke-width="1.5"></path><path d="M526.13 653.61L670.43 640.22" stroke="hsl(228.5, 77.2%, 51.5%)" stroke-width="1.5"></path><path d="M647.13 401.77L647.13 401.77" stroke="hsl(228.5, 77.2%, 51.5%)" stroke-width="1.5"></path><path d="M647.13 401.77L656.05 561.98" stroke="hsl(228.5, 77.2%, 51.5%)" stroke-width="1.5"></path><path d="M647.13 401.77L487.85 487.8" stroke="hsl(228.5, 77.2%, 51.5%)" stroke-width="1.5"></path><path d="M647.13 401.77L826.7 508.7" stroke="hsl(228.5, 77.2%, 51.5%)" stroke-width="1.5"></path><path d="M647.13 401.77L670.43 640.22" stroke="hsl(228.5, 77.2%, 51.5%)" stroke-width="1.5"></path><path d="M647.13 401.77L391.33 510.1" stroke="hsl(228.5, 77.2%, 51.5%)" stroke-width="1.5"></path><path d="M656.05 561.98L656.05 561.98" stroke="hsl(228.5, 77.2%, 51.5%)" stroke-width="1.5"></path><path d="M656.05 561.98L670.43 640.22" stroke="hsl(228.5, 77.2%, 51.5%)" stroke-width="1.5"></path><path d="M656.05 561.98L526.13 653.61" stroke="hsl(228.5, 77.2%, 51.5%)" stroke-width="1.5"></path><path d="M656.05 561.98L801 649.36" stroke="hsl(228.5, 77.2%, 51.5%)" stroke-width="1.5"></path><path d="M656.05 561.98L826.7 508.7" stroke="hsl(228.5, 77.2%, 51.5%)" stroke-width="1.5"></path><path d="M656.05 561.98L487.85 487.8" stroke="hsl(228.5, 77.2%, 51.5%)" stroke-width="1.5"></path><path d="M670.43 640.22L670.43 640.22" stroke="hsl(228.5, 77.2%, 51.5%)" stroke-width="1.5"></path><path d="M670.43 640.22L801 649.36" stroke="hsl(228.5, 77.2%, 51.5%)" stroke-width="1.5"></path><path d="M826.7 508.7L826.7 508.7" stroke="hsl(228.5, 77.2%, 51.5%)" stroke-width="1.5"></path><path d="M826.7 508.7L801 649.36" stroke="hsl(228.5, 77.2%, 51.5%)" stroke-width="1.5"></path><path d="M826.7 508.7L993.86 552.05" stroke="hsl(228.5, 77.2%, 51.5%)" stroke-width="1.5"></path><path d="M801 649.36L801 649.36" stroke="hsl(228.5, 77.2%, 51.5%)" stroke-width="1.5"></path><path d="M801 649.36L1010.06 642.18" stroke="hsl(228.5, 77.2%, 51.5%)" stroke-width="1.5"></path><path d="M801 649.36L993.86 552.05" stroke="hsl(228.5, 77.2%, 51.5%)" stroke-width="1.5"></path><path d="M801 649.36L526.13 653.61" stroke="hsl(228.5, 77.2%, 51.5%)" stroke-width="1.5"></path><path d="M1009.31 240.66L1009.31 240.66" stroke="hsl(228.5, 77.2%, 51.5%)" stroke-width="1.5"></path><path d="M1009.31 240.66L1089.85 212.01" stroke="hsl(228.5, 77.2%, 51.5%)" stroke-width="1.5"></path><path d="M1009.31 240.66L956.48 378.01" stroke="hsl(228.5, 77.2%, 51.5%)" stroke-width="1.5"></path><path d="M1009.31 240.66L1151.31 397.2" stroke="hsl(228.5, 77.2%, 51.5%)" stroke-width="1.5"></path><path d="M1009.31 240.66L1271.03 357.86" stroke="hsl(228.5, 77.2%, 51.5%)" stroke-width="1.5"></path><path d="M1009.31 240.66L1301.32 261.34" stroke="hsl(228.5, 77.2%, 51.5%)" stroke-width="1.5"></path><path d="M1009.31 240.66L993.86 552.05" stroke="hsl(228.5, 77.2%, 51.5%)" stroke-width="1.5"></path><path d="M956.48 378.01L956.48 378.01" stroke="hsl(228.5, 77.2%, 51.5%)" stroke-width="1.5"></path><path d="M956.48 378.01L993.86 552.05" stroke="hsl(228.5, 77.2%, 51.5%)" stroke-width="1.5"></path><path d="M956.48 378.01L826.7 508.7" stroke="hsl(228.5, 77.2%, 51.5%)" stroke-width="1.5"></path><path d="M956.48 378.01L1151.31 397.2" stroke="hsl(228.5, 77.2%, 51.5%)" stroke-width="1.5"></path><path d="M956.48 378.01L1089.85 212.01" stroke="hsl(228.5, 77.2%, 51.5%)" stroke-width="1.5"></path><path d="M956.48 378.01L1156.73 551.32" stroke="hsl(228.5, 77.2%, 51.5%)" stroke-width="1.5"></path><path d="M993.86 552.05L993.86 552.05" stroke="hsl(228.5, 77.2%, 51.5%)" stroke-width="1.5"></path><path d="M993.86 552.05L1010.06 642.18" stroke="hsl(228.5, 77.2%, 51.5%)" stroke-width="1.5"></path><path d="M993.86 552.05L1156.73 551.32" stroke="hsl(228.5, 77.2%, 51.5%)" stroke-width="1.5"></path><path d="M1010.06 642.18L1010.06 642.18" stroke="hsl(228.5, 77.2%, 51.5%)" stroke-width="1.5"></path><path d="M1010.06 642.18L1122.01 686.11" stroke="hsl(228.5, 77.2%, 51.5%)" stroke-width="1.5"></path><path d="M1010.06 642.18L1156.73 551.32" stroke="hsl(228.5, 77.2%, 51.5%)" stroke-width="1.5"></path><path d="M1089.85 212.01L1089.85 212.01" stroke="hsl(228.5, 77.2%, 51.5%)" stroke-width="1.5"></path><path d="M1089.85 212.01L1151.31 397.2" stroke="hsl(228.5, 77.2%, 51.5%)" stroke-width="1.5"></path><path d="M1089.85 212.01L1301.32 261.34" stroke="hsl(228.5, 77.2%, 51.5%)" stroke-width="1.5"></path><path d="M1089.85 212.01L1271.03 357.86" stroke="hsl(228.5, 77.2%, 51.5%)" stroke-width="1.5"></path><path d="M1089.85 212.01L1249.42 39.71" stroke="hsl(228.5, 77.2%, 51.5%)" stroke-width="1.5"></path><path d="M1151.31 397.2L1151.31 397.2" stroke="hsl(228.5, 77.2%, 51.5%)" stroke-width="1.5"></path><path d="M1151.31 397.2L1271.03 357.86" stroke="hsl(228.5, 77.2%, 51.5%)" stroke-width="1.5"></path><path d="M1151.31 397.2L1156.73 551.32" stroke="hsl(228.5, 77.2%, 51.5%)" stroke-width="1.5"></path><path d="M1151.31 397.2L1302.21 491.72" stroke="hsl(228.5, 77.2%, 51.5%)" stroke-width="1.5"></path><path d="M1151.31 397.2L1301.32 261.34" stroke="hsl(228.5, 77.2%, 51.5%)" stroke-width="1.5"></path><path d="M1156.73 551.32L1156.73 551.32" stroke="hsl(228.5, 77.2%, 51.5%)" stroke-width="1.5"></path><path d="M1156.73 551.32L1122.01 686.11" stroke="hsl(228.5, 77.2%, 51.5%)" stroke-width="1.5"></path><path d="M1156.73 551.32L1294.97 709.47" stroke="hsl(228.5, 77.2%, 51.5%)" stroke-width="1.5"></path><path d="M1122.01 686.11L1122.01 686.11" stroke="hsl(228.5, 77.2%, 51.5%)" stroke-width="1.5"></path><path d="M1122.01 686.11L1294.97 709.47" stroke="hsl(228.5, 77.2%, 51.5%)" stroke-width="1.5"></path><path d="M1122.01 686.11L993.86 552.05" stroke="hsl(228.5, 77.2%, 51.5%)" stroke-width="1.5"></path><path d="M1122.01 686.11L1302.21 491.72" stroke="hsl(228.5, 77.2%, 51.5%)" stroke-width="1.5"></path><path d="M1249.42 39.71L1249.42 39.71" stroke="hsl(228.5, 77.2%, 51.5%)" stroke-width="1.5"></path><path d="M1249.42 39.71L1437.2 38.72" stroke="hsl(228.5, 77.2%, 51.5%)" stroke-width="1.5"></path><path d="M1301.32 261.34L1301.32 261.34" stroke="hsl(228.5, 77.2%, 51.5%)" stroke-width="1.5"></path><path d="M1301.32 261.34L1271.03 357.86" stroke="hsl(228.5, 77.2%, 51.5%)" stroke-width="1.5"></path><path d="M1301.32 261.34L1418.03 248.24" stroke="hsl(228.5, 77.2%, 51.5%)" stroke-width="1.5"></path><path d="M1301.32 261.34L1395.29 397.45" stroke="hsl(228.5, 77.2%, 51.5%)" stroke-width="1.5"></path><path d="M1301.32 261.34L1249.42 39.71" stroke="hsl(228.5, 77.2%, 51.5%)" stroke-width="1.5"></path><path d="M1271.03 357.86L1271.03 357.86" stroke="hsl(228.5, 77.2%, 51.5%)" stroke-width="1.5"></path><path d="M1294.97 709.47L1294.97 709.47" stroke="hsl(228.5, 77.2%, 51.5%)" stroke-width="1.5"></path><path d="M1294.97 709.47L1451.3 659.01" stroke="hsl(228.5, 77.2%, 51.5%)" stroke-width="1.5"></path><path d="M1457.94 -97.17L1457.94 -97.17" stroke="hsl(228.5, 77.2%, 51.5%)" stroke-width="1.5"></path><path d="M1457.94 -97.17L1437.2 38.72" stroke="hsl(228.5, 77.2%, 51.5%)" stroke-width="1.5"></path><path d="M1457.94 -97.17L1560.54 85.39" stroke="hsl(228.5, 77.2%, 51.5%)" stroke-width="1.5"></path><path d="M1437.2 38.72L1437.2 38.72" stroke="hsl(228.5, 77.2%, 51.5%)" stroke-width="1.5"></path><path d="M1437.2 38.72L1560.54 85.39" stroke="hsl(228.5, 77.2%, 51.5%)" stroke-width="1.5"></path><path d="M1437.2 38.72L1418.03 248.24" stroke="hsl(228.5, 77.2%, 51.5%)" stroke-width="1.5"></path><path d="M1418.03 248.24L1418.03 248.24" stroke="hsl(228.5, 77.2%, 51.5%)" stroke-width="1.5"></path><path d="M1418.03 248.24L1565.73 217.68" stroke="hsl(228.5, 77.2%, 51.5%)" stroke-width="1.5"></path><path d="M1418.03 248.24L1395.29 397.45" stroke="hsl(228.5, 77.2%, 51.5%)" stroke-width="1.5"></path><path d="M1418.03 248.24L1271.03 357.86" stroke="hsl(228.5, 77.2%, 51.5%)" stroke-width="1.5"></path><path d="M1451.3 659.01L1451.3 659.01" stroke="hsl(228.5, 77.2%, 51.5%)" stroke-width="1.5"></path><path d="M1451.3 659.01L1542.45 498.69" stroke="hsl(228.5, 77.2%, 51.5%)" stroke-width="1.5"></path><path d="M1560.54 85.39L1560.54 85.39" stroke="hsl(228.5, 77.2%, 51.5%)" stroke-width="1.5"></path><path d="M1560.54 85.39L1565.73 217.68" stroke="hsl(228.5, 77.2%, 51.5%)" stroke-width="1.5"></path><path d="M1565.73 217.68L1565.73 217.68" stroke="hsl(228.5, 77.2%, 51.5%)" stroke-width="1.5"></path><path d="M1565.73 217.68L1610.62 401.63" stroke="hsl(228.5, 77.2%, 51.5%)" stroke-width="1.5"></path><path d="M1565.73 217.68L1437.2 38.72" stroke="hsl(228.5, 77.2%, 51.5%)" stroke-width="1.5"></path><path d="M1565.73 217.68L1395.29 397.45" stroke="hsl(228.5, 77.2%, 51.5%)" stroke-width="1.5"></path><path d="M1610.62 401.63L1610.62 401.63" stroke="hsl(228.5, 77.2%, 51.5%)" stroke-width="1.5"></path><path d="M1610.62 401.63L1542.45 498.69" stroke="hsl(228.5, 77.2%, 51.5%)" stroke-width="1.5"></path><path d="M1610.62 401.63L1456.61 503.26" stroke="hsl(228.5, 77.2%, 51.5%)" stroke-width="1.5"></path><path d="M1610.62 401.63L1395.29 397.45" stroke="hsl(228.5, 77.2%, 51.5%)" stroke-width="1.5"></path><path d="M1542.45 498.69L1542.45 498.69" stroke="hsl(228.5, 77.2%, 51.5%)" stroke-width="1.5"></path><path d="M1542.45 498.69L1395.29 397.45" stroke="hsl(228.5, 77.2%, 51.5%)" stroke-width="1.5"></path><circle r="25" cx="-92.13" cy="518.62" fill="url(&quot;#SvgjsRadialGradient1001&quot;)"></circle><circle r="25" cx="1245.84" cy="-60.8" fill="url(&quot;#SvgjsRadialGradient1001&quot;)"></circle><circle r="25" cx="1302.21" cy="491.72" fill="url(&quot;#SvgjsRadialGradient1001&quot;)"></circle><circle r="25" cx="1395.29" cy="397.45" fill="url(&quot;#SvgjsRadialGradient1001&quot;)"></circle><circle r="25" cx="1456.61" cy="503.26" fill="url(&quot;#SvgjsRadialGradient1001&quot;)"></circle><circle r="25" cx="1573.73" cy="692.91" fill="url(&quot;#SvgjsRadialGradient1001&quot;)"></circle><circle r="5" cx="-45.55" cy="688.85" fill="#8b9ad9"></circle><circle r="5" cx="53.15" cy="684.99" fill="#8b9ad9"></circle><circle r="5" cx="203.81" cy="542.71" fill="#8b9ad9"></circle><circle r="5" cx="205.53" cy="676.73" fill="#8b9ad9"></circle><circle r="5" cx="391.33" cy="510.1" fill="#8b9ad9"></circle><circle r="5" cx="399.51" cy="708.3" fill="#8b9ad9"></circle><circle r="5" cx="487.85" cy="487.8" fill="#8b9ad9"></circle><circle r="5" cx="526.13" cy="653.61" fill="#8b9ad9"></circle><circle r="5" cx="647.13" cy="401.77" fill="#8b9ad9"></circle><circle r="5" cx="656.05" cy="561.98" fill="#8b9ad9"></circle><circle r="5" cx="670.43" cy="640.22" fill="#8b9ad9"></circle><circle r="5" cx="826.7" cy="508.7" fill="#8b9ad9"></circle><circle r="5" cx="801" cy="649.36" fill="#8b9ad9"></circle><circle r="5" cx="1009.31" cy="240.66" fill="#8b9ad9"></circle><circle r="5" cx="956.48" cy="378.01" fill="#8b9ad9"></circle><circle r="5" cx="993.86" cy="552.05" fill="#8b9ad9"></circle><circle r="5" cx="1010.06" cy="642.18" fill="#8b9ad9"></circle><circle r="5" cx="1089.85" cy="212.01" fill="#8b9ad9"></circle><circle r="5" cx="1151.31" cy="397.2" fill="#8b9ad9"></circle><circle r="5" cx="1156.73" cy="551.32" fill="#8b9ad9"></circle><circle r="5" cx="1122.01" cy="686.11" fill="#8b9ad9"></circle><circle r="5" cx="1249.42" cy="39.71" fill="#8b9ad9"></circle><circle r="5" cx="1301.32" cy="261.34" fill="#8b9ad9"></circle><circle r="5" cx="1271.03" cy="357.86" fill="#8b9ad9"></circle><circle r="5" cx="1294.97" cy="709.47" fill="#8b9ad9"></circle><circle r="5" cx="1457.94" cy="-97.17" fill="#8b9ad9"></circle><circle r="5" cx="1437.2" cy="38.72" fill="#8b9ad9"></circle><circle r="5" cx="1418.03" cy="248.24" fill="#8b9ad9"></circle><circle r="5" cx="1451.3" cy="659.01" fill="#8b9ad9"></circle><circle r="5" cx="1560.54" cy="85.39" fill="#8b9ad9"></circle><circle r="5" cx="1565.73" cy="217.68" fill="#8b9ad9"></circle><circle r="5" cx="1610.62" cy="401.63" fill="#8b9ad9"></circle><circle r="5" cx="1542.45" cy="498.69" fill="#8b9ad9"></circle></g><defs><mask id="SvgjsMask1000"><rect width="1440" height="560" fill="#ffffff"></rect></mask><radialGradient id="SvgjsRadialGradient1001"><stop stop-color="#ffffff" offset="0.1"></stop><stop stop-color="#1735b3" offset="0.2"></stop><stop stop-color="rgba(23, 53, 179, 0)" offset="1"></stop></radialGradient></defs></svg>